# xmcd
#
# Track frame offsets:
#	150
#	16524
#	31568
#	48047
#	63553
#	83549
#	101344
#	117469
#	134259
#	151061
#
# Disc length: 2249 seconds
#
# Revision: 1
# Processed by: cddbd v1.5.1PL2 Copyright (c) Steve Scherf et al.
# Submitted via: audiograbber 1.83.01
#
DISCID=6308c70a
DTITLE=Frank Bradford - Better Days
DYEAR=2002
DGENRE=
TTITLE0=Light Of Love
TTITLE1=Walk Thru Fire - Nicole Smith
TTITLE2=Watergrave - Russ Taff
TTITLE3=Better Days
TTITLE4=One Of Us
TTITLE5=Don't Run
TTITLE6=Forever
TTITLE7=Blind Man Blues
TTITLE8=Prodigal Son
TTITLE9=Lord You Are Everything
EXTD=
EXTT0=
EXTT1=
EXTT2=
EXTT3=
EXTT4=
EXTT5=
EXTT6=
EXTT7=
EXTT8=
EXTT9=
PLAYORDER=
